<?xml version="1.0" encoding="UTF-8" standalone="no"?>
<!DOCTYPE svg PUBLIC "-//W3C//DTD SVG 1.1//EN" "http://www.w3.org/Graphics/SVG/1.1/DTD/svg11.dtd">
<svg width="100%" height="100%" viewBox="0 0 700 511" version="1.1" xmlns="http://www.w3.org/2000/svg" xmlns:xlink="http://www.w3.org/1999/xlink" xml:space="preserve" xmlns:serif="http://www.serif.com/" style="fill-rule:evenodd;clip-rule:evenodd;stroke-linejoin:round;stroke-miterlimit:2;">
    <g transform="matrix(1,0,0,1,-0.18585,-31.126)">
        <path d="M150.05,210.45C150.05,216.454 145.55,220.954 139.546,220.954C133.542,220.954 129.042,216.454 129.042,210.45L129.042,99.41C129.042,94.91 127.542,91.156 124.542,88.156C121.542,85.906 117.788,83.656 113.288,83.656C108.788,83.656 105.034,85.906 102.034,88.156C99.034,91.156 97.534,94.91 97.534,99.41L97.534,239.71C97.534,245.714 93.034,250.214 87.03,250.214C82.53,250.214 78.776,247.964 77.276,244.21L49.514,196.194C47.264,193.194 44.264,190.19 40.51,189.44C36.01,188.69 31.506,188.69 27.006,190.94C24.006,192.44 22.506,195.44 21.756,198.444C20.256,202.944 21.006,208.948 22.506,214.198L62.272,319.988C69.776,340.996 77.276,368.754 81.78,399.515C86.28,424.273 88.534,451.285 89.284,478.292L261.844,478.292C264.844,440.03 268.598,413.769 272.348,387.511C279.852,334.991 286.602,284.721 286.602,148.921C286.602,144.421 285.102,140.667 282.102,137.667C279.102,134.667 275.348,133.167 270.848,133.167C267.098,133.167 262.594,134.667 260.344,137.667C257.344,140.667 255.094,144.421 255.094,148.921L255.094,210.444C255.094,216.448 250.594,220.948 244.59,220.948C239.34,220.948 234.086,216.448 234.086,210.444L234.086,99.404C234.086,94.904 232.586,91.15 229.586,88.15C226.586,85.9 222.832,83.65 218.332,83.65C213.832,83.65 210.078,85.9 207.078,88.15C204.828,91.15 202.578,94.904 202.578,99.404L202.578,210.444C202.578,216.448 198.078,220.948 192.074,220.948C186.07,220.948 181.57,216.448 181.57,210.444L181.57,67.894C181.57,63.394 180.07,59.64 177.07,56.64C174.07,53.64 170.316,52.14 165.816,52.14C161.316,52.14 157.562,53.64 154.562,56.64L154.562,57.39C151.562,60.39 150.062,64.144 150.062,67.894L150.062,210.444L150.05,210.45ZM439.65,499.3L439.65,520.308L610.71,520.308L610.71,499.3L439.65,499.3ZM438.9,478.292L610.71,478.292C611.46,451.284 614.46,424.272 618.214,399.515C622.714,368.753 630.218,340.995 637.722,319.988L677.488,214.198C678.988,208.948 679.738,202.944 678.238,198.444C677.488,195.444 675.988,192.44 672.988,190.94C668.488,188.69 663.984,188.69 660.234,189.44C655.734,190.19 652.73,193.19 650.48,196.194L622.718,244.21C621.218,247.96 617.468,250.214 612.964,250.214C606.96,250.214 602.46,245.714 602.46,239.71L602.46,99.41C602.46,94.91 600.96,91.156 597.96,88.156C594.96,85.906 591.206,83.656 586.706,83.656C582.206,83.656 578.452,85.906 575.452,88.156C573.202,91.156 570.952,94.91 570.952,99.41L570.952,210.45C570.952,216.454 566.452,220.954 560.448,220.954C554.444,220.954 549.944,216.454 549.944,210.45L549.944,67.9C549.944,64.15 548.444,60.396 545.444,57.396L545.444,56.646C542.444,53.646 538.69,52.146 534.19,52.146C529.69,52.146 525.936,53.646 522.936,56.646C519.936,59.646 518.436,63.4 518.436,67.9L518.436,210.45C518.436,216.454 513.936,220.954 507.932,220.954C501.928,220.954 497.428,216.454 497.428,210.45L497.428,99.41C497.428,94.91 495.178,91.156 492.928,88.156C489.928,85.156 486.174,83.656 481.674,83.656C477.174,83.656 473.42,85.906 470.42,88.156C467.42,91.156 465.92,94.91 465.92,99.41L465.92,210.45C465.92,216.454 461.42,220.954 455.416,220.954C449.412,220.954 444.912,216.454 444.912,210.45L444.912,148.927C444.912,144.427 442.662,140.673 440.412,137.673C437.412,134.673 433.658,133.173 429.158,133.173C424.658,133.173 420.904,134.673 417.904,137.673C414.904,140.673 413.404,144.427 413.404,148.927C413.404,284.727 420.158,334.997 427.658,387.517C431.408,413.775 435.912,440.037 438.912,478.298L438.9,478.292ZM631.72,488.796L631.72,530.812C631.72,536.816 627.22,541.316 621.216,541.316L429.146,541.316C423.142,541.316 418.642,536.816 418.642,530.812L418.642,488.796C414.892,446.78 411.138,418.273 407.388,390.511C399.884,337.241 392.384,286.221 392.384,148.921C392.384,138.417 396.134,129.413 402.888,122.663C409.642,115.909 418.642,112.159 429.146,112.159C434.396,112.159 439.65,113.659 444.9,115.909L444.9,99.401C444.9,89.647 448.65,79.893 455.404,73.143C462.158,67.139 471.158,62.639 481.662,62.639C486.912,62.639 492.916,64.139 497.416,66.389C498.166,56.635 501.916,48.381 507.92,41.631C514.674,35.627 523.674,31.127 534.178,31.127C544.682,31.127 553.686,35.627 560.436,41.631L560.436,42.381C566.44,49.135 570.19,57.385 570.94,66.389C575.44,64.139 581.444,62.639 586.694,62.639C597.198,62.639 606.202,67.139 612.952,73.143C619.706,79.897 623.456,89.651 623.456,99.401L623.456,201.441L632.46,185.687C637.71,177.433 645.214,171.433 654.218,169.179C663.222,166.929 672.976,167.679 681.98,172.179C690.984,176.679 696.234,184.183 698.488,193.187C700.738,202.191 699.988,212.695 696.988,220.949L657.222,327.489C650.468,346.997 643.718,373.255 639.214,402.516C634.714,430.278 631.71,459.536 631.71,488.797L631.72,488.796ZM282.1,488.796L282.1,530.812C282.1,536.816 276.85,541.316 271.596,541.316L78.776,541.316C72.772,541.316 68.272,536.816 68.272,530.812L68.272,488.796C68.272,459.534 65.272,430.276 61.518,402.515C56.268,373.253 49.514,346.995 42.76,327.488L2.994,220.948C-0.006,212.694 -0.756,202.19 1.494,193.186C3.744,184.182 8.998,176.678 18.002,172.178C27.006,167.678 36.76,166.928 45.764,169.178C54.768,171.428 62.272,177.432 67.522,185.686L76.526,201.44L76.526,99.4C76.526,89.646 80.276,79.892 87.03,73.142C93.784,67.138 102.784,62.638 113.288,62.638C119.292,62.638 124.542,64.138 129.042,66.388C129.792,57.384 133.542,49.13 139.546,42.38L139.546,41.63C146.3,35.626 156.054,31.126 165.804,31.126C176.308,31.126 185.312,35.626 192.062,41.63C198.066,48.384 202.566,56.634 202.566,66.388C207.816,64.138 213.07,62.638 218.32,62.638C228.824,62.638 237.828,67.138 244.578,73.142C251.332,79.896 255.082,89.65 255.082,99.4L255.082,115.908C260.332,113.658 265.586,112.158 270.836,112.158C281.34,112.158 290.344,115.908 297.094,122.662C303.848,129.416 307.598,138.416 307.598,148.92C307.598,286.22 300.844,337.24 292.594,390.51C288.844,418.272 285.09,446.78 282.09,488.795L282.1,488.796ZM89.28,499.3L89.28,520.308L261.09,520.308L261.09,499.3L89.28,499.3Z" style="fill-rule:nonzero;"/>
    </g>
</svg>
