<?xml version="1.0" encoding="UTF-8" standalone="no"?>
<!DOCTYPE svg PUBLIC "-//W3C//DTD SVG 1.1//EN" "http://www.w3.org/Graphics/SVG/1.1/DTD/svg11.dtd">
<svg width="100%" height="100%" viewBox="0 0 501 548" version="1.1" xmlns="http://www.w3.org/2000/svg" xmlns:xlink="http://www.w3.org/1999/xlink" xml:space="preserve" xmlns:serif="http://www.serif.com/" style="fill-rule:evenodd;clip-rule:evenodd;stroke-linejoin:round;stroke-miterlimit:2;">
    <g transform="matrix(1,0,0,1,-99.138,-5.90017)">
        <path d="M428,33.152L363.418,33.152L363.418,116.605L436.109,85.007L428,33.152ZM263.9,85.007L336.591,116.605L336.591,33.152L272.009,33.152L263.9,85.007ZM336.591,145.773L246.849,106.769C209.154,109.8 178.708,117.761 151.822,146.023L184.588,202.203C186.057,204.351 186.908,206.945 186.908,209.742L186.908,232.594L336.588,232.594L336.588,145.77L336.591,145.773ZM363.419,145.773L363.419,232.597L513.099,232.597L513.099,209.745C513.099,206.948 513.951,204.354 515.419,202.206L548.185,146.026C521.298,117.764 490.853,109.799 453.158,106.772L363.416,145.776L363.419,145.773ZM296.345,425.593C311.556,416.784 324.97,439.945 309.759,448.757L227.993,495.964C212.782,504.773 199.368,481.612 214.579,472.8L296.345,425.593ZM390.255,448.757C375.044,439.948 388.454,416.784 403.677,425.593L485.435,472.8C500.646,481.609 487.236,504.773 472.021,495.964L390.255,448.757ZM186.915,284.577L336.595,284.577L336.595,259.429L186.915,259.429L186.915,284.577ZM363.425,284.577L513.105,284.577L513.105,259.429L363.425,259.429L363.425,284.577ZM513.105,311.409L363.425,311.409L363.425,526.819L486.805,526.819C501.278,526.819 513.11,514.987 513.11,500.514L513.11,311.414L513.105,311.409ZM336.595,311.409L186.915,311.409L186.915,500.509C186.915,514.982 198.747,526.814 213.22,526.814L336.6,526.814L336.595,311.409ZM136.455,436.479L136.455,449.741L160.096,449.741L160.096,436.479L136.455,436.479ZM160.096,476.569L123.041,476.569C115.635,476.569 109.627,470.565 109.627,463.155L109.627,436.057C103.838,434.569 99.568,429.319 99.568,423.065L99.568,206.855C99.568,130.832 168.767,87.505 237.528,80.695L247.384,17.675C248.407,11.073 254.102,6.351 260.591,6.359L439.431,6.359C445.919,6.351 451.615,11.074 452.638,17.675L462.493,80.695C531.263,87.507 600.453,130.832 600.453,206.855L600.453,423.065C600.453,429.315 596.18,434.569 590.394,436.057L590.394,463.155C590.394,470.561 584.39,476.569 576.98,476.569L539.925,476.569L539.925,500.507C539.925,529.788 516.073,553.64 486.792,553.64L213.212,553.64C183.931,553.64 160.079,529.788 160.079,500.507L160.079,476.569L160.096,476.569ZM135.678,171.439C130.537,182.353 126.397,194.736 126.397,206.865L126.397,409.655L160.096,409.655L160.096,213.305L135.678,171.439ZM539.938,449.749L563.579,449.749L563.579,436.487L539.938,436.487L539.938,449.749ZM564.356,171.439L539.938,213.306L539.938,409.656L573.637,409.656L573.637,206.866C573.637,194.737 569.496,182.354 564.356,171.44L564.356,171.439Z" style="fill-rule:nonzero;"/>
    </g>
</svg>
