<?xml version="1.0" encoding="UTF-8" standalone="no"?>
<!DOCTYPE svg PUBLIC "-//W3C//DTD SVG 1.1//EN" "http://www.w3.org/Graphics/SVG/1.1/DTD/svg11.dtd">
<svg width="100%" height="100%" viewBox="0 0 561 560" version="1.1" xmlns="http://www.w3.org/2000/svg" xmlns:xlink="http://www.w3.org/1999/xlink" xml:space="preserve" xmlns:serif="http://www.serif.com/" style="fill-rule:evenodd;clip-rule:evenodd;stroke-linejoin:round;stroke-miterlimit:2;">
    <g transform="matrix(1,0,0,1,-69.9998,0)">
        <path d="M621.25,52.5L463.75,52.5L463.75,8.75C463.75,3.91 459.828,0 455,0L253.75,0C251.344,0 249.035,0.988 247.379,2.746C245.727,4.496 244.867,6.859 245.008,9.258L262.5,306.248C262.5,335.201 238.953,358.748 210,358.748L140,358.748C101.402,358.748 70,390.15 70,428.748L70,498.748C70,503.588 73.922,507.498 78.75,507.498L236.25,507.498L236.25,551.248C236.25,556.088 240.172,559.998 245,559.998L428.75,559.998C432.066,559.998 435.094,558.127 436.582,555.158L442.906,542.498L493.34,542.498L499.676,555.158C501.156,558.127 504.184,559.998 507.5,559.998L621.25,559.998C626.078,559.998 630,556.088 630,551.248L630,61.248C630,56.408 626.078,52.498 621.25,52.498L621.25,52.5ZM612.5,472.5L586.25,472.5L586.25,490L612.5,490L612.5,507.5L253.75,507.5L253.75,481.25C253.75,452.297 277.297,428.75 306.25,428.75L315,428.75C315,462.516 342.477,490 376.25,490L529.51,490C545.881,490 561.256,483.621 572.822,472.055L612.502,432.371L612.5,472.5ZM560.438,459.68C552.176,467.942 541.196,472.5 529.508,472.5L376.248,472.5C352.123,472.5 332.498,452.875 332.498,428.75L376.248,428.75C400.834,428.75 422.455,415.984 434.943,396.629L437.619,412.684L454.885,409.813L446.213,357.758L438.022,218.748L612.502,218.748L612.502,407.628L560.438,459.68ZM612.5,201.25L437,201.25L434.426,157.5L612.496,157.5L612.5,201.25ZM612.5,140L433.39,140L431.851,113.75L612.491,113.75L612.5,140ZM412.78,87.5L267.14,87.5L265.601,61.25L411.331,61.25C411.331,61.426 411.245,61.59 411.253,61.766L412.78,87.5ZM268.18,105L413.82,105L416.394,148.75L270.754,148.75L268.18,105ZM612.5,96.25L430.82,96.25L429.281,70L612.491,70L612.5,96.25ZM446.25,17.5L446.25,43.75L264.57,43.75L263.031,17.5L446.25,17.5ZM268.7,344.13L271.376,360.185L288.642,357.314L279.97,305.259L271.779,166.249L417.419,166.249L428.758,358.749C428.758,387.702 405.211,411.249 376.258,411.249L306.258,411.249C293.501,411.249 281.568,414.733 271.258,420.718L271.258,419.999L210.008,419.999C185.883,419.999 166.258,400.374 166.258,376.249L210.008,376.249C234.594,376.249 256.215,363.483 268.703,344.128L268.7,344.13ZM139.996,376.251L148.75,376.251C148.75,410.017 176.227,437.501 210,437.501L251.695,437.501C247.461,442.767 243.988,448.649 241.406,455.001L87.496,455.001L87.496,428.751C87.496,399.798 111.043,376.251 139.996,376.251ZM87.5,490.001L87.5,472.501L236.86,472.501C236.501,475.372 236.255,478.286 236.255,481.251L236.255,490.001L87.5,490.001ZM429.67,529.841L423.346,542.501L253.756,542.501L253.756,525.001L437.506,525.001C434.189,525.001 431.162,526.872 429.674,529.841L429.67,529.841ZM612.5,542.501L512.906,542.501L506.57,529.841C505.093,526.872 502.066,525.001 498.75,525.001L612.5,525.001L612.5,542.501Z" style="fill-rule:nonzero;"/>
    </g>
</svg>
