<?xml version="1.0" encoding="UTF-8" standalone="no"?>
<!DOCTYPE svg PUBLIC "-//W3C//DTD SVG 1.1//EN" "http://www.w3.org/Graphics/SVG/1.1/DTD/svg11.dtd">
<svg width="100%" height="100%" viewBox="0 0 262 554" version="1.1" xmlns="http://www.w3.org/2000/svg" xmlns:xlink="http://www.w3.org/1999/xlink" xml:space="preserve" xmlns:serif="http://www.serif.com/" style="fill-rule:evenodd;clip-rule:evenodd;stroke-linejoin:round;stroke-miterlimit:2;">
    <g transform="matrix(1,0,0,1,-219.435,-3.13759)">
        <path d="M466.89,289.37C466.503,282.155 465.425,274.991 463.679,267.979L425.179,113.599C424.351,110.279 422.441,107.333 419.742,105.232C417.046,103.126 413.726,101.986 410.304,101.99L399.523,101.99L399.851,96.372L403.902,96.372L403.906,96.368C409.062,96.368 413.394,92.493 413.968,87.368L422.144,14.391C422.464,11.528 421.546,8.665 419.628,6.516C417.706,4.368 414.96,3.138 412.081,3.138L391.226,3.138C386.066,3.142 381.734,7.016 381.164,12.141L372.985,85.114C372.664,87.978 373.578,90.845 375.5,92.993C377.422,95.142 380.168,96.368 383.047,96.368L386.695,96.368L386.367,101.986L313.621,101.989L313.293,96.372L316.942,96.372L316.942,96.368C319.824,96.368 322.57,95.142 324.492,92.993C326.41,90.845 327.328,87.978 327.004,85.114L318.844,12.141C318.274,7.016 313.942,3.141 308.782,3.138L287.927,3.138C285.044,3.142 282.302,4.372 280.38,6.52C278.458,8.669 277.544,11.536 277.864,14.399L286.032,87.364L286.032,87.368C286.607,92.493 290.939,96.368 296.094,96.368L300.145,96.368L300.473,101.985L289.676,101.989C286.258,101.985 282.934,103.126 280.239,105.232C277.544,107.333 275.629,110.278 274.801,113.599L236.301,267.979C234.555,274.99 233.481,282.151 233.09,289.366L219.457,540.576C219.231,544.779 220.743,548.888 223.641,551.943C226.539,554.997 230.563,556.724 234.77,556.716L318.895,556.716C322.645,556.716 326.262,555.341 329.067,552.853C331.868,550.361 333.661,546.931 334.102,543.204L350,409.064L365.898,543.224C366.34,546.947 368.133,550.377 370.933,552.869C373.738,555.357 377.355,556.732 381.105,556.732L465.234,556.732C469.441,556.74 473.469,555.013 476.363,551.959C479.262,548.908 480.774,544.795 480.547,540.596L466.89,289.37ZM393.902,16.27L408.73,16.27L401.226,83.25L386.406,83.25L393.902,16.27ZM291.272,16.27L306.1,16.27L313.6,83.25L298.776,83.25L291.272,16.27ZM466.812,542.91C466.398,543.348 465.824,543.594 465.222,543.594L381.105,543.594C379.992,543.601 379.05,542.769 378.918,541.664L360.863,389.184C360.218,383.672 355.546,379.52 350,379.52C344.453,379.52 339.781,383.672 339.137,389.184L321.063,541.664C320.934,542.769 319.992,543.601 318.875,543.594L234.766,543.594C234.165,543.594 233.59,543.348 233.176,542.91C232.762,542.476 232.547,541.887 232.579,541.289L246.216,290.059C246.559,283.68 247.513,277.344 249.056,271.145L287.556,116.765C287.798,115.788 288.673,115.105 289.677,115.101L410.327,115.101C411.331,115.105 412.206,115.788 412.448,116.765L450.948,271.145C452.491,277.348 453.444,283.68 453.792,290.063L467.421,541.273L467.421,541.277C467.452,541.878 467.233,542.468 466.815,542.906L466.812,542.91Z" style="fill-rule:nonzero;"/>
    </g>
    <g transform="matrix(1,0,0,1,-219.435,-3.13759)">
        <path d="M389.951,166.82L310.059,166.82C306,166.82 302.106,168.433 299.235,171.304C296.36,174.176 294.747,178.07 294.747,182.132L294.747,232.53C294.755,240.116 297.774,247.389 303.137,252.753C308.501,258.117 315.774,261.136 323.36,261.144L376.649,261.144C384.235,261.136 391.508,258.117 396.872,252.753C402.236,247.39 405.255,240.116 405.263,232.53L405.263,182.132C405.263,178.07 403.65,174.175 400.775,171.304C397.904,168.433 394.009,166.82 389.951,166.82ZM392.138,232.531C392.134,236.637 390.501,240.574 387.595,243.48C384.692,246.382 380.755,248.015 376.65,248.019L323.361,248.019C319.255,248.015 315.318,246.382 312.416,243.48C309.509,240.574 307.876,236.636 307.873,232.531L307.873,182.133C307.873,180.922 308.853,179.946 310.06,179.946L389.951,179.946C390.529,179.946 391.088,180.176 391.498,180.586C391.908,180.996 392.139,181.551 392.139,182.133L392.138,232.531Z" style="fill-rule:nonzero;"/>
    </g>
    <g transform="matrix(1,0,0,1,-219.435,-3.13759)">
        <path d="M407.31,146.66C369.361,140.223 330.603,140.223 292.65,146.66C289.287,147.226 286.919,150.277 287.205,153.676C287.49,157.074 290.33,159.687 293.74,159.691C294.111,159.691 294.482,159.66 294.845,159.594C331.345,153.406 368.626,153.406 405.125,159.594C408.7,160.199 412.09,157.793 412.692,154.215C413.297,150.64 410.887,147.254 407.313,146.648L407.31,146.66Z" style="fill-rule:nonzero;"/>
    </g>
    <g transform="matrix(1,0,0,1,-219.435,-3.13759)">
        <path d="M381.18,193.05L318.821,193.05C315.196,193.05 312.259,195.988 312.259,199.613C312.259,203.238 315.196,206.175 318.821,206.175L381.18,206.175C384.805,206.175 387.743,203.238 387.743,199.613C387.743,195.988 384.805,193.05 381.18,193.05Z" style="fill-rule:nonzero;"/>
    </g>
</svg>
